<svg xmlns="http://www.w3.org/2000/svg" xmlns:xlink="http://www.w3.org/1999/xlink" width="500" zoomAndPan="magnify" viewBox="0 0 375 374.999991" height="500" preserveAspectRatio="xMidYMid meet" version="1.0"><defs><clipPath id="87e0cca05c"><path d="M 45.339844 0 L 329.589844 0 L 329.589844 375 L 45.339844 375 Z M 45.339844 0 " clip-rule="nonzero"/></clipPath><clipPath id="43f24c64f9"><path d="M 208.664062 231.097656 L 240.398438 231.097656 L 240.398438 267.484375 L 208.664062 267.484375 Z M 208.664062 231.097656 " clip-rule="nonzero"/></clipPath><clipPath id="f88b84c4a4"><path d="M 115.148438 213 L 230 213 L 230 280 L 115.148438 280 Z M 115.148438 213 " clip-rule="nonzero"/></clipPath><clipPath id="b4bb80ba13"><path d="M 120 281 L 225 281 L 225 289.859375 L 120 289.859375 Z M 120 281 " clip-rule="nonzero"/></clipPath><clipPath id="341b997f96"><path d="M 166 163.109375 L 183 163.109375 L 183 205 L 166 205 Z M 166 163.109375 " clip-rule="nonzero"/></clipPath></defs><g clip-path="url(#87e0cca05c)"><path fill="#000000" d="M 329.410156 95.25 C 329.410156 95.175781 329.410156 95.101562 329.410156 95.023438 C 329.410156 94.949219 329.410156 94.875 329.335938 94.875 C 329.335938 94.800781 329.335938 94.726562 329.261719 94.648438 C 329.261719 94.574219 329.1875 94.5 329.1875 94.5 C 329.1875 94.425781 329.113281 94.351562 329.113281 94.273438 C 329.035156 94.199219 329.035156 94.199219 329.035156 94.125 L 328.886719 93.976562 L 328.738281 93.824219 L 328.660156 93.75 L 328.585938 93.75 C 328.511719 93.675781 328.4375 93.675781 328.4375 93.601562 L 328.285156 93.523438 L 328.0625 93.449219 L 327.910156 93.375 L 327.6875 93.375 C 327.613281 93.375 327.535156 93.375 327.460938 93.375 L 274.523438 93.375 C 270.472656 57.675781 255.328125 0 200.4375 0 C 185.367188 0 173.292969 4.351562 163.472656 11.324219 C 152.671875 14.175781 142.925781 19.949219 135.203125 27.976562 C 117.804688 45.824219 110.007812 73.273438 106.40625 93.523438 L 70.941406 93.523438 C 70.863281 93.523438 70.789062 93.523438 70.789062 93.523438 L 70.640625 93.601562 C 70.566406 93.601562 70.488281 93.601562 70.414062 93.675781 L 70.265625 93.75 L 70.113281 93.824219 L 69.964844 93.898438 L 69.816406 94.050781 L 69.738281 94.199219 C 69.664062 94.273438 69.664062 94.351562 69.589844 94.425781 L 63.066406 104.699219 L 47.46875 104.699219 C 46.34375 104.699219 45.519531 105.601562 45.519531 106.648438 L 45.519531 373.050781 C 45.519531 374.175781 46.421875 375 47.46875 375 L 303.765625 375 C 303.917969 375 304.066406 375 304.21875 374.925781 L 304.367188 374.925781 C 304.441406 374.851562 304.589844 374.851562 304.667969 374.773438 L 304.816406 374.699219 C 304.964844 374.625 305.042969 374.550781 305.191406 374.398438 L 305.265625 374.324219 C 305.339844 374.25 305.417969 374.101562 305.492188 373.949219 C 305.492188 373.949219 305.492188 373.949219 305.566406 373.875 L 315.238281 355.574219 L 327.386719 355.949219 C 327.910156 355.949219 328.4375 355.726562 328.8125 355.425781 C 329.1875 355.050781 329.410156 354.523438 329.410156 354 L 329.410156 95.25 C 329.410156 95.324219 329.410156 95.324219 329.410156 95.25 Z M 312.089844 353.175781 L 305.792969 365.023438 L 305.792969 109.949219 L 312.089844 113.324219 Z M 313.589844 109.648438 L 304.816406 104.925781 C 304.515625 104.773438 304.21875 104.699219 303.917969 104.699219 L 255.476562 104.699219 C 255.25 102.375 254.953125 99.898438 254.578125 97.425781 L 323.488281 97.425781 Z M 165.195312 14.925781 C 170.371094 13.648438 175.617188 12.976562 180.941406 13.050781 C 197.964844 13.050781 212.210938 18.976562 223.457031 30.675781 C 239.128906 47.023438 246.402344 72.074219 249.851562 93.449219 L 128.527344 93.449219 C 130.777344 76.875 135.726562 54.226562 146.597656 36.074219 C 151.847656 27.148438 158.070312 20.101562 165.195312 14.925781 Z M 250.378906 97.351562 C 250.753906 99.824219 251.054688 102.300781 251.277344 104.625 L 108.808594 104.625 C 109.105469 102.300781 109.480469 99.824219 109.855469 97.351562 Z M 200.4375 3.898438 C 223.382812 3.898438 241.304688 14.699219 253.675781 36 C 264.25 54.226562 268.75 76.875 270.699219 93.449219 L 253.976562 93.449219 C 250.828125 73.273438 243.480469 45.824219 226.382812 27.976562 C 214.460938 15.449219 199.164062 9.074219 181.015625 9.074219 C 178.84375 9.074219 176.742188 9.148438 174.644531 9.375 C 182.667969 5.625 191.515625 3.75 200.4375 3.898438 Z M 138.050781 30.675781 C 142.925781 25.648438 148.699219 21.449219 154.996094 18.523438 C 135.351562 38.550781 127.554688 70.5 124.480469 93.449219 L 110.53125 93.449219 C 114.355469 72.074219 122.078125 47.023438 138.050781 30.675781 Z M 72.289062 97.351562 L 105.808594 97.351562 C 105.433594 99.824219 105.058594 102.300781 104.757812 104.625 L 67.640625 104.625 Z M 301.816406 371.023438 L 49.496094 371.023438 L 49.496094 108.601562 L 104.308594 108.601562 C 103.484375 116.023438 103.183594 122.398438 103.035156 126.898438 C 99.058594 127.949219 96.660156 132 97.710938 135.976562 C 98.757812 139.949219 102.808594 142.351562 106.78125 141.300781 C 110.757812 140.25 113.15625 136.199219 112.105469 132.226562 C 111.429688 129.675781 109.480469 127.648438 106.933594 126.976562 C 107.082031 122.476562 107.457031 116.101562 108.28125 108.601562 L 251.652344 108.601562 C 252.328125 116.101562 252.550781 122.476562 252.628906 126.976562 C 248.652344 128.101562 246.328125 132.148438 247.378906 136.125 C 248.503906 140.101562 252.550781 142.425781 256.527344 141.375 C 260.5 140.25 262.824219 136.199219 261.777344 132.226562 C 261.101562 129.675781 259.074219 127.726562 256.527344 126.976562 C 256.453125 122.476562 256.226562 116.101562 255.550781 108.601562 L 301.667969 108.601562 Z M 102.957031 134.175781 C 102.957031 135.300781 103.859375 136.125 104.984375 136.125 C 106.109375 136.125 106.933594 135.226562 106.933594 134.101562 C 106.933594 134.023438 106.933594 133.050781 106.933594 131.25 C 108.507812 132.375 108.957031 134.550781 107.832031 136.125 C 106.707031 137.699219 104.53125 138.148438 102.957031 137.023438 C 101.382812 135.898438 100.933594 133.726562 102.058594 132.148438 C 102.285156 131.773438 102.582031 131.476562 102.957031 131.25 C 102.957031 133.125 102.957031 134.175781 102.957031 134.175781 Z M 258.175781 134.175781 C 258.175781 136.125 256.601562 137.699219 254.726562 137.699219 C 252.777344 137.699219 251.203125 136.125 251.203125 134.25 C 251.203125 133.125 251.726562 132 252.703125 131.324219 C 252.703125 133.050781 252.628906 134.023438 252.628906 134.101562 C 252.550781 135.226562 253.453125 136.125 254.503906 136.125 L 254.578125 136.125 C 255.625 136.125 256.527344 135.300781 256.527344 134.25 C 256.527344 134.175781 256.601562 133.125 256.601562 131.25 C 257.578125 131.925781 258.175781 132.976562 258.175781 134.175781 Z M 316.0625 351.75 L 316.0625 112.875 L 325.511719 101.101562 L 325.511719 352.125 Z M 316.0625 351.75 " fill-opacity="1" fill-rule="nonzero"/></g><g clip-path="url(#43f24c64f9)"><path fill="#000000" d="M 224.554688 231.117188 C 224.121094 233.636719 223.550781 236.125 222.816406 238.566406 C 228.109375 239.554688 232.097656 243.847656 232.09375 248.988281 C 232.097656 254.859375 226.898438 259.621094 220.488281 259.621094 C 217.914062 259.621094 215.554688 258.828125 213.628906 257.53125 C 212.121094 259.691406 210.488281 261.753906 208.742188 263.710938 C 212.042969 265.917969 216.089844 267.238281 220.484375 267.234375 C 231.488281 267.234375 240.410156 259.0625 240.410156 248.988281 C 240.410156 240.183594 233.609375 232.839844 224.554688 231.117188 " fill-opacity="1" fill-rule="nonzero"/></g><path fill="#000000" d="M 132.054688 227.300781 L 141.660156 227.300781 C 142.058594 227.300781 142.367188 227.640625 142.335938 228.035156 C 142.023438 231.9375 141.1875 250.53125 152.613281 261.777344 C 152.773438 261.933594 152.574219 262.1875 152.382812 262.074219 C 148.730469 259.886719 137.996094 251.703125 131.402344 228.164062 C 131.28125 227.730469 131.605469 227.300781 132.054688 227.300781 " fill-opacity="1" fill-rule="nonzero"/><g clip-path="url(#f88b84c4a4)"><path fill="#000000" d="M 221.113281 221.324219 L 124.054688 221.324219 C 123.679688 221.324219 123.433594 221.507812 123.292969 221.660156 C 123.171875 221.792969 122.980469 222.070312 123.019531 222.484375 C 124.75 241.082031 135.390625 259.664062 149.496094 268.730469 C 152.15625 270.441406 155.273438 271.34375 158.503906 271.34375 L 186.671875 271.34375 C 189.902344 271.34375 193.015625 270.4375 195.679688 268.730469 C 209.78125 259.664062 220.417969 241.082031 222.152344 222.484375 C 222.191406 222.070312 221.996094 221.792969 221.878906 221.660156 C 221.738281 221.507812 221.492188 221.324219 221.113281 221.324219 Z M 186.671875 279.003906 L 158.503906 279.003906 C 153.800781 279.003906 149.25 277.675781 145.351562 275.167969 C 129.367188 264.898438 117.328125 244.011719 115.386719 223.195312 C 115.160156 220.753906 115.976562 218.3125 117.628906 216.503906 C 119.273438 214.699219 121.617188 213.667969 124.054688 213.667969 L 221.113281 213.664062 C 223.554688 213.664062 225.898438 214.699219 227.542969 216.503906 C 229.191406 218.3125 230.007812 220.75 229.78125 223.195312 C 227.84375 244.011719 215.804688 264.898438 199.824219 275.167969 C 195.921875 277.675781 191.375 279.003906 186.671875 279.003906 " fill-opacity="1" fill-rule="nonzero"/></g><g clip-path="url(#b4bb80ba13)"><path fill="#000000" d="M 122.601562 281.296875 L 222.566406 281.296875 C 224.523438 281.296875 224.925781 284.0625 223.050781 284.617188 L 217.910156 286.144531 C 209.917969 288.515625 201.625 289.722656 193.289062 289.722656 L 151.882812 289.722656 C 143.542969 289.71875 135.253906 288.515625 127.261719 286.144531 L 122.121094 284.617188 C 120.246094 284.0625 120.648438 281.296875 122.601562 281.296875 " fill-opacity="1" fill-rule="nonzero"/></g><path fill="#000000" d="M 178.945312 164.820312 C 179.167969 164.621094 178.949219 164.265625 178.671875 164.371094 C 178.441406 164.457031 178.183594 164.5625 177.902344 164.6875 C 176.625 165.25 174.8125 166.144531 172.894531 167.707031 C 171.941406 168.488281 170.945312 169.421875 170.0625 170.609375 C 169.175781 171.78125 168.359375 173.207031 167.921875 174.878906 C 167.46875 176.539062 167.414062 178.429688 167.839844 180.207031 C 168.242188 181.992188 169.089844 183.625 170.089844 185.042969 C 170.585938 185.761719 171.148438 186.414062 171.710938 187.042969 C 172.214844 187.601562 172.835938 188.199219 173.328125 188.71875 C 174.355469 189.796875 175.351562 190.820312 176.175781 191.875 C 176.96875 192.929688 177.738281 193.960938 178.15625 194.996094 C 178.535156 196.023438 178.839844 197.035156 178.675781 197.953125 C 178.597656 198.886719 178.203125 199.75 177.746094 200.480469 C 177.5625 200.886719 177.234375 201.15625 177 201.472656 C 176.742188 201.765625 176.523438 202.070312 176.289062 202.304688 C 176.015625 202.546875 175.769531 202.765625 175.558594 202.957031 C 175.367188 203.132812 175.558594 203.445312 175.800781 203.351562 C 176.074219 203.242188 176.394531 203.117188 176.757812 202.964844 C 177.078125 202.8125 177.402344 202.585938 177.78125 202.359375 C 178.148438 202.125 178.574219 201.898438 178.925781 201.503906 C 179.691406 200.816406 180.542969 199.851562 180.957031 198.503906 C 181.492188 197.171875 181.417969 195.5625 181.058594 194.058594 C 180.695312 192.527344 179.96875 191.132812 179.132812 189.785156 C 178.289062 188.445312 177.28125 187.210938 176.242188 186.03125 C 175.734375 185.46875 175.226562 184.898438 174.714844 184.328125 C 174.253906 183.792969 173.8125 183.257812 173.429688 182.695312 C 172.625 181.589844 172.019531 180.410156 171.675781 179.226562 C 171.335938 178.039062 171.269531 176.84375 171.449219 175.660156 C 171.640625 174.488281 172.039062 173.320312 172.617188 172.261719 C 173.195312 171.210938 173.863281 170.230469 174.550781 169.359375 C 175.945312 167.628906 177.339844 166.285156 178.339844 165.367188 C 178.5625 165.164062 178.765625 164.980469 178.945312 164.820312 " fill-opacity="1" fill-rule="nonzero"/><g clip-path="url(#341b997f96)"><path fill="#000000" d="M 179.644531 198.078125 C 179.59375 198.636719 179.453125 199.195312 179.21875 199.761719 C 179.589844 199.269531 179.855469 198.757812 180.023438 198.214844 L 180.050781 198.136719 C 180.554688 196.878906 180.359375 195.347656 180.105469 194.285156 C 179.742188 192.742188 178.949219 191.34375 178.300781 190.296875 C 177.609375 189.207031 176.746094 188.085938 175.507812 186.679688 C 175.253906 186.394531 174.992188 186.101562 174.730469 185.808594 C 174.484375 185.535156 174.234375 185.257812 173.988281 184.980469 L 173.976562 184.96875 C 173.550781 184.472656 173.054688 183.882812 172.628906 183.257812 C 171.742188 182.035156 171.105469 180.773438 170.734375 179.5 C 170.363281 178.191406 170.277344 176.851562 170.480469 175.515625 C 170.695312 174.214844 171.136719 172.933594 171.757812 171.792969 C 172.339844 170.734375 173.023438 169.714844 173.785156 168.753906 C 174.164062 168.28125 174.539062 167.839844 174.910156 167.429688 C 174.457031 167.734375 173.988281 168.078125 173.515625 168.464844 C 172.40625 169.371094 171.558594 170.238281 170.847656 171.191406 C 169.882812 172.46875 169.21875 173.789062 168.867188 175.128906 C 168.441406 176.691406 168.414062 178.410156 168.792969 179.980469 C 169.128906 181.46875 169.832031 182.976562 170.890625 184.480469 C 171.367188 185.167969 171.917969 185.804688 172.441406 186.390625 C 172.742188 186.726562 173.097656 187.085938 173.441406 187.433594 C 173.648438 187.644531 173.851562 187.847656 174.039062 188.046875 L 174.351562 188.375 C 175.292969 189.359375 176.179688 190.289062 176.945312 191.273438 L 176.957031 191.285156 C 177.761719 192.355469 178.59375 193.464844 179.0625 194.632812 L 179.070312 194.65625 C 179.457031 195.6875 179.847656 196.882812 179.644531 198.078125 Z M 175.71875 204.34375 C 175.308594 204.34375 174.914062 204.136719 174.6875 203.773438 C 174.378906 203.277344 174.46875 202.628906 174.902344 202.234375 C 175.105469 202.046875 175.347656 201.832031 175.617188 201.59375 C 175.722656 201.484375 175.839844 201.339844 175.964844 201.183594 C 176.054688 201.078125 176.144531 200.964844 176.238281 200.855469 C 176.332031 200.730469 176.4375 200.617188 176.527344 200.515625 C 176.667969 200.351562 176.792969 200.210938 176.851562 200.078125 L 176.878906 200.019531 L 176.914062 199.964844 C 177.386719 199.207031 177.644531 198.523438 177.699219 197.867188 L 177.710938 197.777344 C 177.835938 197.089844 177.5625 196.207031 177.242188 195.347656 C 176.871094 194.425781 176.121094 193.429688 175.398438 192.46875 C 174.691406 191.5625 173.839844 190.671875 172.9375 189.726562 L 172.621094 189.394531 C 172.441406 189.207031 172.246094 189.007812 172.046875 188.804688 C 171.6875 188.441406 171.316406 188.066406 170.984375 187.695312 C 170.414062 187.058594 169.820312 186.367188 169.285156 185.601562 C 168.082031 183.890625 167.277344 182.148438 166.886719 180.421875 C 166.4375 178.554688 166.46875 176.488281 166.980469 174.621094 C 167.394531 173.042969 168.167969 171.492188 169.285156 170.019531 C 170.085938 168.9375 171.039062 167.960938 172.277344 166.949219 C 174.320312 165.285156 176.238281 164.351562 177.503906 163.792969 C 177.785156 163.671875 178.054688 163.558594 178.320312 163.457031 C 178.882812 163.242188 179.515625 163.457031 179.832031 163.972656 C 180.144531 164.484375 180.046875 165.148438 179.597656 165.550781 C 179.417969 165.707031 179.21875 165.886719 179 166.085938 C 178.078125 166.9375 176.6875 168.261719 175.3125 169.972656 C 174.621094 170.84375 174 171.773438 173.472656 172.734375 C 172.957031 173.679688 172.589844 174.746094 172.414062 175.820312 C 172.253906 176.867188 172.320312 177.929688 172.617188 178.960938 C 172.921875 180.015625 173.460938 181.078125 174.222656 182.121094 L 174.242188 182.148438 C 174.609375 182.691406 175.058594 183.230469 175.453125 183.683594 C 175.699219 183.960938 175.945312 184.234375 176.1875 184.507812 C 176.449219 184.800781 176.710938 185.089844 176.96875 185.378906 C 177.859375 186.386719 178.996094 187.734375 179.960938 189.261719 C 180.691406 190.441406 181.578125 192.019531 182.007812 193.835938 C 182.464844 195.734375 182.417969 197.460938 181.882812 198.828125 C 181.488281 200.070312 180.75 201.175781 179.617188 202.199219 C 179.246094 202.601562 178.832031 202.855469 178.5 203.0625 C 178.4375 203.101562 178.371094 203.140625 178.308594 203.183594 L 178.28125 203.203125 C 178.160156 203.273438 178.046875 203.34375 177.933594 203.414062 C 177.683594 203.570312 177.445312 203.71875 177.183594 203.84375 L 177.136719 203.867188 C 176.800781 204.007812 176.472656 204.136719 176.160156 204.261719 C 176.015625 204.316406 175.867188 204.34375 175.71875 204.34375 " fill-opacity="1" fill-rule="nonzero"/></g><path fill="#000000" d="M 160.019531 169.335938 C 160.21875 169.136719 160.015625 168.804688 159.75 168.894531 C 159.566406 168.953125 159.355469 169.027344 159.128906 169.113281 C 158.621094 169.300781 158.015625 169.558594 157.339844 169.914062 C 156.667969 170.273438 155.917969 170.71875 155.160156 171.308594 C 154.78125 171.601562 154.40625 171.945312 154 172.289062 C 153.613281 172.652344 153.273438 173.09375 152.886719 173.527344 C 152.546875 174 152.203125 174.507812 151.878906 175.050781 C 151.621094 175.636719 151.300781 176.226562 151.144531 176.898438 C 151.003906 177.574219 150.785156 178.265625 150.839844 178.996094 L 150.859375 180.09375 C 150.871094 180.464844 150.996094 180.804688 151.066406 181.164062 L 151.335938 182.230469 C 151.460938 182.566406 151.625 182.878906 151.777344 183.203125 C 152.085938 183.851562 152.402344 184.496094 152.835938 185.015625 C 153.25 185.550781 153.652344 186.140625 154.089844 186.609375 C 154.476562 187.039062 154.96875 187.507812 155.34375 187.894531 C 156.125 188.707031 156.886719 189.464844 157.511719 190.238281 C 158.113281 191.007812 158.707031 191.757812 159.03125 192.492188 C 159.324219 193.21875 159.585938 193.921875 159.5 194.574219 C 159.480469 195.242188 159.234375 195.886719 158.914062 196.453125 C 158.605469 197.019531 158.1875 197.476562 157.882812 197.890625 C 157.679688 198.089844 157.5 198.273438 157.34375 198.429688 C 157.171875 198.605469 157.351562 198.894531 157.585938 198.816406 C 157.804688 198.746094 158.0625 198.65625 158.355469 198.550781 C 158.832031 198.289062 159.488281 198.023438 160.097656 197.476562 C 160.71875 196.960938 161.425781 196.207031 161.78125 195.125 C 162.238281 194.0625 162.207031 192.761719 161.933594 191.554688 C 161.664062 190.324219 161.113281 189.214844 160.472656 188.148438 C 159.820312 187.089844 159.050781 186.121094 158.257812 185.210938 C 157.875 184.773438 157.488281 184.339844 157.105469 183.902344 C 156.742188 183.503906 156.5 183.082031 156.183594 182.683594 C 155.832031 182.292969 155.636719 181.867188 155.425781 181.449219 C 155.324219 181.238281 155.191406 181.035156 155.09375 180.828125 L 154.90625 180.195312 C 154.726562 179.777344 154.699219 179.359375 154.652344 178.941406 C 154.542969 178.519531 154.679688 178.101562 154.671875 177.675781 C 154.6875 177.25 154.886719 176.84375 154.945312 176.410156 C 155.09375 175.996094 155.265625 175.585938 155.4375 175.175781 C 155.867188 174.394531 156.316406 173.636719 156.8125 172.957031 C 157.324219 172.296875 157.824219 171.679688 158.289062 171.144531 C 158.785156 170.621094 159.214844 170.164062 159.566406 169.789062 C 159.734375 169.625 159.886719 169.472656 160.019531 169.335938 " fill-opacity="1" fill-rule="nonzero"/><path fill="#000000" d="M 160.476562 194.652344 C 160.457031 195.089844 160.363281 195.539062 160.199219 196 C 160.5 195.628906 160.714844 195.238281 160.851562 194.820312 L 160.882812 194.738281 C 161.207031 193.988281 161.238281 192.933594 160.980469 191.769531 C 160.765625 190.804688 160.351562 189.84375 159.632812 188.652344 C 159.105469 187.796875 158.433594 186.902344 157.515625 185.851562 L 157.054688 185.324219 C 156.824219 185.066406 156.597656 184.804688 156.371094 184.546875 C 156.121094 184.273438 155.917969 183.984375 155.742188 183.730469 C 155.636719 183.582031 155.539062 183.441406 155.433594 183.3125 C 155.042969 182.867188 154.8125 182.410156 154.609375 182.003906 L 154.554688 181.886719 C 154.507812 181.796875 154.464844 181.71875 154.417969 181.640625 C 154.351562 181.519531 154.277344 181.386719 154.207031 181.238281 L 154.179688 181.175781 L 153.980469 180.527344 C 153.785156 180.039062 153.738281 179.582031 153.695312 179.175781 L 153.6875 179.105469 C 153.597656 178.703125 153.636719 178.339844 153.667969 178.042969 C 153.683594 177.914062 153.695312 177.792969 153.695312 177.695312 L 153.691406 177.667969 L 153.695312 177.644531 C 153.707031 177.285156 153.796875 176.972656 153.875 176.699219 C 153.917969 176.546875 153.957031 176.402344 153.976562 176.28125 L 153.988281 176.179688 L 154.023438 176.082031 C 154.183594 175.632812 154.363281 175.199219 154.535156 174.796875 L 154.578125 174.707031 C 155.101562 173.757812 155.558594 173.019531 156.019531 172.382812 L 156.039062 172.359375 C 156.34375 171.964844 156.617188 171.621094 156.871094 171.308594 C 156.523438 171.523438 156.144531 171.78125 155.761719 172.078125 C 155.527344 172.261719 155.285156 172.472656 155.03125 172.691406 C 154.90625 172.800781 154.78125 172.90625 154.65625 173.015625 C 154.4375 173.21875 154.226562 173.46875 154 173.734375 C 153.886719 173.867188 153.769531 174.003906 153.652344 174.136719 C 153.292969 174.640625 153.003906 175.078125 152.75 175.503906 C 152.695312 175.621094 152.640625 175.738281 152.585938 175.859375 C 152.386719 176.285156 152.199219 176.6875 152.097656 177.109375 C 152.066406 177.257812 152.03125 177.414062 151.996094 177.566406 C 151.886719 178.046875 151.78125 178.5 151.816406 178.921875 L 151.816406 178.980469 L 151.835938 180.066406 C 151.839844 180.207031 151.882812 180.375 151.933594 180.566406 C 151.960938 180.6875 151.996094 180.8125 152.023438 180.949219 L 152.273438 181.941406 C 152.34375 182.128906 152.4375 182.324219 152.539062 182.53125 C 152.582031 182.617188 152.621094 182.703125 152.664062 182.789062 C 152.949219 183.390625 153.234375 183.96875 153.589844 184.394531 L 153.605469 184.417969 C 153.738281 184.585938 153.867188 184.761719 154 184.933594 C 154.277344 185.304688 154.539062 185.65625 154.808594 185.945312 L 154.820312 185.957031 C 155.050781 186.214844 155.332031 186.496094 155.601562 186.765625 C 155.757812 186.921875 155.910156 187.074219 156.046875 187.214844 L 156.421875 187.601562 C 157.089844 188.289062 157.71875 188.941406 158.269531 189.621094 L 158.351562 189.726562 C 158.949219 190.488281 159.566406 191.28125 159.925781 192.097656 L 159.9375 192.125 C 160.277344 192.964844 160.574219 193.792969 160.476562 194.652344 Z M 157.511719 199.808594 C 157.101562 199.808594 156.710938 199.601562 156.484375 199.238281 C 156.1875 198.761719 156.253906 198.148438 156.644531 197.746094 C 156.789062 197.601562 156.957031 197.429688 157.144531 197.246094 C 157.226562 197.140625 157.3125 197.03125 157.402344 196.917969 C 157.632812 196.621094 157.875 196.316406 158.054688 195.984375 C 158.355469 195.453125 158.507812 194.972656 158.523438 194.542969 L 158.53125 194.449219 C 158.582031 194.042969 158.371094 193.472656 158.128906 192.871094 C 157.867188 192.28125 157.351562 191.625 156.8125 190.929688 L 156.746094 190.84375 C 156.25 190.234375 155.648438 189.617188 155.015625 188.960938 L 154.636719 188.570312 C 154.511719 188.4375 154.367188 188.296875 154.21875 188.148438 C 153.929688 187.859375 153.632812 187.5625 153.371094 187.269531 C 153.03125 186.90625 152.726562 186.5 152.429688 186.105469 C 152.3125 185.945312 152.191406 185.785156 152.070312 185.628906 C 151.578125 185.03125 151.234375 184.339844 150.894531 183.621094 C 150.855469 183.542969 150.816406 183.464844 150.78125 183.386719 C 150.65625 183.128906 150.527344 182.863281 150.417969 182.566406 L 150.386719 182.472656 L 150.105469 181.347656 C 150.085938 181.246094 150.058594 181.144531 150.035156 181.042969 C 149.96875 180.777344 149.890625 180.476562 149.878906 180.128906 L 149.878906 180.113281 L 149.863281 179.039062 C 149.8125 178.335938 149.960938 177.695312 150.089844 177.128906 C 150.125 176.984375 150.15625 176.84375 150.183594 176.703125 L 150.191406 176.671875 C 150.335938 176.054688 150.585938 175.515625 150.808594 175.035156 C 150.867188 174.90625 150.925781 174.78125 150.984375 174.652344 L 151.039062 174.542969 C 151.339844 174.050781 151.671875 173.546875 152.089844 172.960938 L 152.15625 172.875 C 152.277344 172.738281 152.394531 172.601562 152.511719 172.464844 C 152.769531 172.164062 153.03125 171.855469 153.332031 171.574219 L 153.367188 171.542969 C 153.496094 171.433594 153.625 171.324219 153.746094 171.214844 C 154.011719 170.988281 154.28125 170.75 154.558594 170.535156 C 155.449219 169.84375 156.308594 169.359375 156.875 169.054688 C 157.496094 168.726562 158.136719 168.441406 158.785156 168.195312 C 159.007812 168.113281 159.230469 168.035156 159.445312 167.964844 C 159.996094 167.785156 160.59375 168.003906 160.894531 168.496094 C 161.195312 168.992188 161.121094 169.621094 160.710938 170.03125 C 160.578125 170.160156 160.433594 170.308594 160.273438 170.46875 C 159.921875 170.839844 159.5 171.289062 159.015625 171.804688 C 158.609375 172.261719 158.160156 172.816406 157.59375 173.542969 C 157.191406 174.101562 156.785156 174.757812 156.316406 175.605469 C 156.175781 175.941406 156.027344 176.296875 155.894531 176.65625 C 155.859375 176.871094 155.804688 177.0625 155.753906 177.238281 C 155.703125 177.410156 155.65625 177.574219 155.648438 177.695312 C 155.652344 177.898438 155.632812 178.085938 155.613281 178.253906 C 155.59375 178.433594 155.574219 178.605469 155.601562 178.695312 L 155.617188 178.761719 L 155.640625 178.972656 C 155.675781 179.296875 155.703125 179.574219 155.804688 179.816406 L 155.839844 179.914062 L 156.007812 180.472656 C 156.042969 180.535156 156.082031 180.605469 156.125 180.679688 C 156.1875 180.792969 156.25 180.902344 156.304688 181.015625 L 156.363281 181.132812 C 156.535156 181.476562 156.683594 181.773438 156.910156 182.027344 L 156.953125 182.074219 C 157.09375 182.257812 157.222656 182.433594 157.339844 182.605469 C 157.503906 182.835938 157.652344 183.050781 157.832031 183.246094 C 158.066406 183.515625 158.292969 183.773438 158.523438 184.03125 L 158.992188 184.5625 C 159.984375 185.703125 160.714844 186.679688 161.304688 187.636719 C 162.140625 189.023438 162.628906 190.164062 162.890625 191.34375 C 163.132812 192.433594 163.296875 194.035156 162.695312 195.472656 C 162.34375 196.511719 161.703125 197.410156 160.738281 198.21875 C 160.175781 198.71875 159.605469 199.007812 159.148438 199.238281 C 159.035156 199.296875 158.929688 199.351562 158.828125 199.40625 L 158.761719 199.441406 L 158.691406 199.46875 C 158.417969 199.566406 158.148438 199.660156 157.894531 199.746094 C 157.769531 199.789062 157.640625 199.808594 157.511719 199.808594 " fill-opacity="1" fill-rule="nonzero"/><path fill="#000000" d="M 195.972656 169.335938 C 196.171875 169.140625 195.96875 168.808594 195.703125 168.894531 C 195.519531 168.953125 195.308594 169.027344 195.082031 169.109375 C 194.574219 169.300781 193.96875 169.558594 193.292969 169.914062 C 192.621094 170.273438 191.871094 170.714844 191.113281 171.308594 C 190.734375 171.601562 190.359375 171.945312 189.957031 172.289062 C 189.566406 172.652344 189.226562 173.097656 188.839844 173.527344 C 188.503906 174.003906 188.160156 174.507812 187.832031 175.046875 C 187.574219 175.636719 187.253906 176.226562 187.097656 176.894531 C 186.960938 177.574219 186.738281 178.265625 186.792969 178.996094 L 186.8125 180.09375 C 186.824219 180.464844 186.949219 180.804688 187.023438 181.164062 L 187.289062 182.230469 C 187.414062 182.570312 187.578125 182.882812 187.730469 183.207031 C 188.039062 183.851562 188.359375 184.496094 188.785156 185.015625 C 189.203125 185.550781 189.605469 186.140625 190.046875 186.609375 C 190.429688 187.039062 190.921875 187.507812 191.296875 187.894531 C 192.078125 188.707031 192.839844 189.464844 193.464844 190.238281 C 194.066406 191.007812 194.664062 191.753906 194.984375 192.488281 C 195.28125 193.21875 195.539062 193.917969 195.457031 194.578125 C 195.433594 195.242188 195.183594 195.886719 194.867188 196.453125 C 194.5625 197.019531 194.140625 197.476562 193.839844 197.890625 C 193.632812 198.089844 193.453125 198.273438 193.296875 198.429688 C 193.125 198.605469 193.304688 198.894531 193.539062 198.820312 C 193.757812 198.746094 194.015625 198.65625 194.308594 198.550781 C 194.785156 198.289062 195.441406 198.023438 196.050781 197.476562 C 196.671875 196.960938 197.378906 196.207031 197.734375 195.125 C 198.191406 194.0625 198.160156 192.761719 197.886719 191.554688 C 197.617188 190.324219 197.070312 189.214844 196.425781 188.148438 C 195.777344 187.089844 195.003906 186.121094 194.210938 185.207031 C 193.832031 184.773438 193.441406 184.339844 193.058594 183.902344 C 192.699219 183.503906 192.457031 183.082031 192.136719 182.679688 C 191.785156 182.292969 191.589844 181.867188 191.378906 181.449219 C 191.277344 181.238281 191.144531 181.035156 191.050781 180.828125 L 190.859375 180.199219 C 190.679688 179.777344 190.652344 179.359375 190.605469 178.941406 C 190.496094 178.519531 190.632812 178.101562 190.625 177.675781 C 190.640625 177.25 190.839844 176.84375 190.894531 176.410156 C 191.046875 175.996094 191.21875 175.582031 191.390625 175.175781 C 191.820312 174.398438 192.269531 173.636719 192.765625 172.957031 C 193.28125 172.296875 193.777344 171.683594 194.242188 171.144531 C 194.738281 170.621094 195.167969 170.164062 195.523438 169.789062 C 195.6875 169.625 195.839844 169.472656 195.972656 169.335938 " fill-opacity="1" fill-rule="nonzero"/><path fill="#000000" d="M 195.285156 168.644531 Z M 196.429688 194.652344 C 196.410156 195.089844 196.320312 195.539062 196.152344 195.996094 C 196.453125 195.628906 196.667969 195.238281 196.808594 194.816406 L 196.835938 194.742188 C 197.160156 193.984375 197.195312 192.929688 196.933594 191.769531 C 196.722656 190.808594 196.308594 189.847656 195.589844 188.648438 C 195.066406 187.800781 194.390625 186.90625 193.472656 185.847656 C 193.273438 185.621094 193.0625 185.382812 192.855469 185.152344 C 192.679688 184.949219 192.5 184.75 192.324219 184.546875 C 192.078125 184.273438 191.875 183.988281 191.695312 183.734375 C 191.589844 183.585938 191.492188 183.441406 191.386719 183.308594 C 191 182.871094 190.773438 182.417969 190.570312 182.015625 L 190.507812 181.886719 C 190.464844 181.800781 190.417969 181.722656 190.375 181.644531 C 190.308594 181.523438 190.230469 181.386719 190.160156 181.234375 L 190.132812 181.175781 L 189.9375 180.527344 C 189.734375 180.035156 189.6875 179.570312 189.644531 179.164062 L 189.640625 179.105469 C 189.550781 178.699219 189.589844 178.339844 189.621094 178.042969 C 189.636719 177.914062 189.648438 177.792969 189.648438 177.695312 L 189.648438 177.644531 C 189.660156 177.285156 189.746094 176.980469 189.824219 176.707031 C 189.867188 176.550781 189.910156 176.40625 189.925781 176.285156 L 189.9375 176.175781 L 189.976562 176.074219 C 190.144531 175.621094 190.328125 175.171875 190.492188 174.796875 L 190.535156 174.707031 C 191.058594 173.75 191.519531 173.007812 191.976562 172.382812 L 191.996094 172.355469 C 192.300781 171.960938 192.578125 171.617188 192.832031 171.304688 C 192.480469 171.519531 192.101562 171.777344 191.714844 172.078125 C 191.480469 172.261719 191.238281 172.472656 190.980469 172.695312 C 190.859375 172.800781 190.734375 172.90625 190.609375 173.015625 C 190.394531 173.21875 190.179688 173.46875 189.953125 173.734375 C 189.839844 173.867188 189.726562 174 189.605469 174.136719 C 189.347656 174.503906 189.015625 174.984375 188.699219 175.5 C 188.644531 175.625 188.585938 175.75 188.53125 175.875 C 188.335938 176.292969 188.152344 176.695312 188.050781 177.105469 C 188.019531 177.261719 187.984375 177.417969 187.949219 177.574219 C 187.839844 178.050781 187.738281 178.5 187.769531 178.917969 L 187.773438 178.980469 L 187.789062 180.078125 C 187.792969 180.207031 187.835938 180.375 187.886719 180.574219 C 187.917969 180.695312 187.949219 180.820312 187.976562 180.945312 L 188.226562 181.941406 C 188.300781 182.132812 188.394531 182.328125 188.492188 182.53125 C 188.535156 182.617188 188.578125 182.703125 188.617188 182.789062 C 188.902344 183.390625 189.1875 183.964844 189.542969 184.394531 L 189.558594 184.414062 C 189.691406 184.585938 189.820312 184.761719 189.953125 184.9375 C 190.230469 185.304688 190.492188 185.65625 190.761719 185.941406 L 190.773438 185.957031 C 191 186.207031 191.273438 186.480469 191.535156 186.746094 C 191.699219 186.910156 191.859375 187.070312 192 187.214844 L 192.375 187.605469 C 193.042969 188.292969 193.671875 188.941406 194.226562 189.621094 L 194.308594 189.726562 C 194.90625 190.492188 195.523438 191.28125 195.878906 192.097656 L 195.890625 192.121094 C 196.230469 192.957031 196.527344 193.78125 196.429688 194.652344 Z M 193.464844 199.808594 C 193.054688 199.808594 192.664062 199.601562 192.4375 199.238281 C 192.136719 198.761719 192.207031 198.148438 192.597656 197.746094 C 192.742188 197.597656 192.910156 197.429688 193.097656 197.246094 C 193.179688 197.140625 193.265625 197.03125 193.355469 196.914062 C 193.589844 196.621094 193.828125 196.316406 194.007812 195.988281 C 194.308594 195.453125 194.464844 194.96875 194.476562 194.542969 L 194.484375 194.453125 C 194.535156 194.039062 194.324219 193.46875 194.082031 192.871094 C 193.820312 192.28125 193.308594 191.625 192.765625 190.929688 L 192.699219 190.847656 C 192.203125 190.234375 191.605469 189.617188 190.972656 188.964844 L 190.589844 188.574219 C 190.457031 188.433594 190.304688 188.28125 190.152344 188.128906 C 189.871094 187.847656 189.582031 187.554688 189.324219 187.269531 C 188.984375 186.90625 188.679688 186.5 188.386719 186.105469 C 188.265625 185.945312 188.144531 185.785156 188.023438 185.628906 C 187.53125 185.027344 187.1875 184.335938 186.847656 183.621094 C 186.808594 183.542969 186.773438 183.46875 186.734375 183.390625 C 186.609375 183.132812 186.480469 182.867188 186.371094 182.566406 L 186.339844 182.46875 L 186.0625 181.359375 C 186.042969 181.257812 186.015625 181.160156 185.992188 181.058594 C 185.921875 180.789062 185.84375 180.480469 185.832031 180.121094 L 185.816406 179.039062 C 185.769531 178.335938 185.914062 177.699219 186.042969 177.136719 C 186.074219 176.992188 186.109375 176.847656 186.136719 176.703125 L 186.144531 176.671875 C 186.285156 176.0625 186.535156 175.527344 186.753906 175.050781 C 186.816406 174.917969 186.878906 174.789062 186.933594 174.65625 L 186.960938 174.597656 L 186.996094 174.542969 C 187.367188 173.929688 187.75 173.375 188.042969 172.960938 L 188.113281 172.875 C 188.234375 172.738281 188.351562 172.601562 188.464844 172.464844 C 188.722656 172.164062 188.988281 171.855469 189.289062 171.574219 L 189.324219 171.542969 C 189.449219 171.433594 189.574219 171.324219 189.699219 171.21875 C 189.964844 170.988281 190.234375 170.75 190.511719 170.535156 C 191.398438 169.847656 192.257812 169.359375 192.828125 169.050781 C 193.457031 168.722656 194.097656 168.4375 194.738281 168.195312 C 194.964844 168.113281 195.1875 168.035156 195.402344 167.964844 C 195.949219 167.785156 196.546875 168.003906 196.847656 168.5 C 197.148438 168.992188 197.074219 169.621094 196.664062 170.03125 C 196.53125 170.160156 196.386719 170.308594 196.226562 170.46875 L 195.703125 171.023438 C 195.476562 171.261719 195.230469 171.523438 194.96875 171.800781 C 194.570312 172.261719 194.117188 172.816406 193.546875 173.546875 C 193.148438 174.089844 192.746094 174.746094 192.273438 175.605469 C 192.136719 175.921875 191.984375 176.292969 191.847656 176.65625 C 191.8125 176.871094 191.757812 177.0625 191.707031 177.238281 C 191.660156 177.410156 191.613281 177.574219 191.605469 177.695312 C 191.605469 177.898438 191.585938 178.085938 191.566406 178.253906 C 191.546875 178.433594 191.53125 178.605469 191.554688 178.695312 L 191.570312 178.765625 L 191.59375 178.960938 C 191.625 179.289062 191.65625 179.570312 191.757812 179.816406 L 191.792969 179.914062 L 191.964844 180.472656 C 191.996094 180.539062 192.039062 180.609375 192.082031 180.6875 C 192.144531 180.792969 192.203125 180.90625 192.257812 181.015625 L 192.320312 181.140625 C 192.492188 181.484375 192.636719 181.777344 192.863281 182.023438 L 192.902344 182.074219 C 193.050781 182.257812 193.175781 182.4375 193.296875 182.609375 C 193.457031 182.839844 193.609375 183.050781 193.785156 183.246094 C 193.96875 183.457031 194.144531 183.65625 194.320312 183.855469 C 194.53125 184.089844 194.738281 184.328125 194.945312 184.5625 C 195.941406 185.707031 196.671875 186.683594 197.257812 187.632812 C 198.101562 189.03125 198.585938 190.171875 198.84375 191.34375 C 199.085938 192.433594 199.253906 194.035156 198.652344 195.472656 C 198.300781 196.511719 197.65625 197.410156 196.691406 198.21875 C 196.128906 198.71875 195.5625 199.003906 195.105469 199.238281 C 194.992188 199.296875 194.882812 199.351562 194.78125 199.40625 L 194.714844 199.445312 L 194.644531 199.46875 C 194.371094 199.570312 194.101562 199.660156 193.84375 199.746094 C 193.71875 199.789062 193.589844 199.808594 193.464844 199.808594 " fill-opacity="1" fill-rule="nonzero"/></svg>