<svg xmlns="http://www.w3.org/2000/svg" xmlns:xlink="http://www.w3.org/1999/xlink" width="500" zoomAndPan="magnify" viewBox="0 0 375 374.999991" height="500" preserveAspectRatio="xMidYMid meet" version="1.0"><defs><clipPath id="5ca6aefb9c"><path d="M 219.859375 217.6875 L 274.019531 217.6875 L 274.019531 279.917969 L 219.859375 279.917969 Z M 219.859375 217.6875 " clip-rule="nonzero"/></clipPath><clipPath id="f80ee28565"><path d="M 60.269531 187 L 256 187 L 256 300 L 60.269531 300 Z M 60.269531 187 " clip-rule="nonzero"/></clipPath><clipPath id="9a0b22d05b"><path d="M 148 101.425781 L 175 101.425781 L 175 172 L 148 172 Z M 148 101.425781 " clip-rule="nonzero"/></clipPath></defs><path fill="#000000" d="M 326.265625 63.101562 C 325.253906 58.921875 324.039062 53.871094 321.546875 50.503906 L 321.546875 26.652344 C 321.546875 15.539062 312.453125 6.441406 301.339844 6.441406 L 66.714844 6.441406 C 55.601562 6.441406 46.507812 15.539062 46.507812 26.652344 L 46.507812 46.863281 C 46.507812 51.511719 48.125 55.691406 50.75 59.125 C 42.398438 88.699219 34.71875 187.597656 32.496094 218.453125 C 22.324219 358.375 27.039062 360.734375 31.148438 362.753906 C 38.289062 366.324219 48.460938 368.347656 59.980469 368.546875 L 314.8125 368.546875 C 325.996094 368.546875 337.109375 366.660156 344.789062 362.753906 C 349.101562 360.597656 353.210938 358.578125 344.25 229.5 C 339.9375 167.65625 332.933594 91.460938 326.265625 63.101562 Z M 60.046875 355.074219 C 52.367188 354.9375 45.160156 353.792969 39.972656 351.90625 C 37.816406 324.21875 50.75 116.253906 62.675781 66.671875 C 63.953125 66.941406 65.367188 67.074219 66.714844 67.074219 L 194.703125 67.074219 L 194.703125 53.601562 L 66.714844 53.601562 C 63.011719 53.601562 59.980469 50.570312 59.980469 46.863281 L 59.980469 26.652344 C 59.980469 22.949219 63.011719 19.917969 66.714844 19.917969 L 301.339844 19.917969 C 305.042969 19.917969 308.074219 22.949219 308.074219 26.652344 L 308.074219 50.570312 C 305.582031 53.9375 304.371094 58.992188 303.429688 63.101562 C 296.757812 91.460938 289.753906 167.65625 285.441406 229.5 C 279.582031 313.375 279.246094 343.554688 280.929688 355.074219 Z M 336.03125 351.90625 C 331.988281 353.457031 326.9375 354.402344 321.546875 354.804688 L 321.546875 248.96875 L 308.074219 248.96875 L 308.074219 354.804688 C 302.753906 354.402344 297.703125 353.457031 293.660156 351.90625 C 290.964844 323.882812 304.304688 131.277344 314.8125 73.746094 C 325.320312 131.277344 338.726562 323.882812 336.03125 351.90625 Z M 336.03125 351.90625 " fill-opacity="1" fill-rule="nonzero"/><g clip-path="url(#5ca6aefb9c)"><path fill="#000000" d="M 246.984375 217.722656 C 246.238281 222.035156 245.265625 226.289062 244.015625 230.464844 C 253.046875 232.15625 259.851562 239.496094 259.851562 248.285156 C 259.851562 258.328125 250.980469 266.472656 240.039062 266.472656 C 235.644531 266.472656 231.621094 265.117188 228.335938 262.894531 C 225.761719 266.589844 222.976562 270.117188 219.996094 273.464844 C 225.628906 277.242188 232.539062 279.496094 240.039062 279.496094 C 258.816406 279.496094 274.039062 265.519531 274.039062 248.285156 C 274.039062 233.230469 262.4375 220.671875 246.984375 217.722656 " fill-opacity="1" fill-rule="nonzero"/></g><path fill="#000000" d="M 89.125 211.199219 L 105.515625 211.199219 C 106.191406 211.199219 106.722656 211.777344 106.667969 212.453125 C 106.132812 219.125 104.707031 250.921875 124.203125 270.15625 C 124.476562 270.425781 124.140625 270.863281 123.8125 270.664062 C 117.582031 266.929688 99.261719 252.925781 88.011719 212.675781 C 87.804688 211.9375 88.355469 211.199219 89.125 211.199219 " fill-opacity="1" fill-rule="nonzero"/><g clip-path="url(#f80ee28565)"><path fill="#000000" d="M 241.109375 200.976562 L 75.472656 200.976562 C 74.828125 200.976562 74.40625 201.289062 74.167969 201.550781 C 73.964844 201.777344 73.636719 202.253906 73.699219 202.960938 C 76.65625 234.765625 94.816406 266.546875 118.886719 282.046875 C 123.429688 284.972656 128.746094 286.519531 134.257812 286.519531 L 182.328125 286.519531 C 187.84375 286.519531 193.160156 284.972656 197.699219 282.046875 C 221.769531 266.546875 239.925781 234.765625 242.882812 202.960938 C 242.945312 202.253906 242.617188 201.777344 242.414062 201.550781 C 242.175781 201.289062 241.753906 200.976562 241.109375 200.976562 Z M 182.328125 299.617188 L 134.257812 299.617188 C 126.230469 299.617188 118.46875 297.347656 111.8125 293.0625 C 84.539062 275.496094 63.988281 239.777344 60.679688 204.175781 C 60.292969 200 61.683594 195.828125 64.5 192.734375 C 67.308594 189.648438 71.308594 187.882812 75.472656 187.882812 L 241.109375 187.878906 C 245.273438 187.878906 249.273438 189.648438 252.082031 192.734375 C 254.898438 195.828125 256.289062 199.996094 255.902344 204.175781 C 252.59375 239.777344 232.046875 275.496094 204.777344 293.0625 C 198.117188 297.347656 190.359375 299.617188 182.328125 299.617188 " fill-opacity="1" fill-rule="nonzero"/></g><path fill="#000000" d="M 72.992188 303.542969 L 243.589844 303.542969 C 246.929688 303.542969 247.617188 308.265625 244.414062 309.21875 L 235.644531 311.828125 C 222.003906 315.886719 207.847656 317.945312 193.621094 317.945312 L 122.957031 317.945312 C 108.730469 317.945312 94.582031 315.886719 80.941406 311.828125 L 72.167969 309.21875 C 68.96875 308.265625 69.652344 303.542969 72.992188 303.542969 " fill-opacity="1" fill-rule="nonzero"/><path fill="#000000" d="M 169.144531 104.34375 C 169.523438 104.007812 169.152344 103.394531 168.679688 103.574219 C 168.285156 103.726562 167.84375 103.90625 167.363281 104.117188 C 165.183594 105.078125 162.089844 106.613281 158.820312 109.285156 C 157.195312 110.617188 155.492188 112.21875 153.988281 114.25 C 152.472656 116.253906 151.082031 118.691406 150.335938 121.546875 C 149.558594 124.390625 149.464844 127.621094 150.191406 130.660156 C 150.882812 133.714844 152.328125 136.503906 154.027344 138.929688 C 154.882812 140.15625 155.839844 141.273438 156.800781 142.347656 C 157.65625 143.308594 158.714844 144.328125 159.5625 145.21875 C 161.3125 147.058594 163.015625 148.8125 164.417969 150.613281 C 165.773438 152.417969 167.085938 154.179688 167.796875 155.953125 C 168.449219 157.707031 168.96875 159.433594 168.683594 161.007812 C 168.546875 162.605469 167.878906 164.078125 167.09375 165.332031 C 166.785156 166.023438 166.222656 166.488281 165.824219 167.023438 C 165.386719 167.53125 165.011719 168.046875 164.613281 168.449219 C 164.140625 168.863281 163.722656 169.238281 163.367188 169.566406 C 163.039062 169.867188 163.367188 170.402344 163.78125 170.238281 C 164.246094 170.058594 164.792969 169.835938 165.414062 169.578125 C 165.957031 169.316406 166.515625 168.929688 167.15625 168.546875 C 167.785156 168.140625 168.511719 167.753906 169.113281 167.082031 C 170.421875 165.90625 171.871094 164.253906 172.582031 161.945312 C 173.492188 159.671875 173.363281 156.921875 172.75 154.351562 C 172.132812 151.730469 170.890625 149.34375 169.46875 147.039062 C 168.023438 144.75 166.304688 142.640625 164.53125 140.621094 C 163.667969 139.660156 162.800781 138.6875 161.929688 137.710938 C 161.140625 136.792969 160.382812 135.875 159.734375 134.917969 C 158.359375 133.027344 157.324219 131.011719 156.738281 128.984375 C 156.160156 126.953125 156.042969 124.90625 156.351562 122.886719 C 156.679688 120.878906 157.359375 118.878906 158.34375 117.070312 C 159.332031 115.277344 160.46875 113.597656 161.644531 112.109375 C 164.023438 109.148438 166.40625 106.851562 168.113281 105.28125 C 168.488281 104.933594 168.835938 104.621094 169.144531 104.34375 " fill-opacity="1" fill-rule="nonzero"/><g clip-path="url(#9a0b22d05b)"><path fill="#000000" d="M 170.339844 161.222656 C 170.25 162.175781 170.011719 163.128906 169.609375 164.101562 C 170.246094 163.257812 170.699219 162.382812 170.984375 161.453125 L 171.03125 161.324219 C 171.894531 159.171875 171.558594 156.554688 171.125 154.738281 C 170.503906 152.097656 169.152344 149.707031 168.046875 147.917969 C 166.867188 146.050781 165.394531 144.132812 163.277344 141.726562 C 162.84375 141.242188 162.398438 140.742188 161.949219 140.242188 C 161.53125 139.769531 161.109375 139.296875 160.6875 138.824219 L 160.664062 138.800781 C 159.9375 137.953125 159.09375 136.945312 158.367188 135.875 C 156.851562 133.789062 155.765625 131.625 155.136719 129.449219 C 154.496094 127.214844 154.351562 124.921875 154.703125 122.632812 C 155.066406 120.414062 155.816406 118.21875 156.878906 116.269531 C 157.871094 114.460938 159.035156 112.714844 160.339844 111.070312 C 160.984375 110.265625 161.628906 109.511719 162.257812 108.804688 C 161.484375 109.332031 160.6875 109.917969 159.878906 110.578125 C 157.984375 112.128906 156.539062 113.609375 155.328125 115.242188 C 153.683594 117.421875 152.550781 119.679688 151.949219 121.972656 C 151.222656 124.648438 151.175781 127.589844 151.816406 130.269531 C 152.390625 132.816406 153.59375 135.398438 155.394531 137.96875 C 156.210938 139.140625 157.152344 140.230469 158.042969 141.238281 C 158.558594 141.808594 159.164062 142.421875 159.75 143.015625 C 160.105469 143.375 160.453125 143.730469 160.769531 144.0625 L 161.308594 144.628906 C 162.910156 146.3125 164.421875 147.902344 165.734375 149.582031 L 165.753906 149.605469 C 167.125 151.4375 168.546875 153.332031 169.347656 155.332031 L 169.359375 155.367188 C 170.015625 157.132812 170.683594 159.179688 170.339844 161.222656 Z M 163.636719 171.9375 C 162.9375 171.9375 162.265625 171.585938 161.878906 170.960938 C 161.351562 170.109375 161.503906 169.003906 162.242188 168.332031 C 162.59375 168.011719 163.003906 167.640625 163.460938 167.234375 C 163.644531 167.046875 163.847656 166.796875 164.058594 166.535156 C 164.210938 166.351562 164.363281 166.164062 164.523438 165.976562 C 164.6875 165.757812 164.863281 165.5625 165.015625 165.386719 C 165.261719 165.109375 165.46875 164.871094 165.574219 164.644531 L 165.621094 164.542969 L 165.679688 164.445312 C 166.488281 163.152344 166.925781 161.980469 167.023438 160.863281 L 167.042969 160.710938 C 167.253906 159.535156 166.78125 158.019531 166.238281 156.554688 C 165.605469 154.976562 164.328125 153.273438 163.09375 151.628906 C 161.886719 150.082031 160.429688 148.554688 158.890625 146.9375 L 158.351562 146.371094 C 158.046875 146.050781 157.714844 145.714844 157.371094 145.367188 C 156.757812 144.742188 156.125 144.101562 155.554688 143.464844 C 154.589844 142.378906 153.574219 141.199219 152.660156 139.886719 C 150.609375 136.960938 149.230469 133.980469 148.566406 131.027344 C 147.796875 127.832031 147.855469 124.300781 148.722656 121.109375 C 149.429688 118.410156 150.753906 115.753906 152.65625 113.238281 C 154.027344 111.390625 155.652344 109.714844 157.765625 107.988281 C 161.25 105.140625 164.527344 103.542969 166.6875 102.589844 C 167.164062 102.378906 167.628906 102.191406 168.078125 102.015625 C 169.039062 101.648438 170.121094 102.015625 170.65625 102.894531 C 171.191406 103.769531 171.023438 104.90625 170.257812 105.59375 C 169.953125 105.863281 169.613281 106.171875 169.238281 106.511719 C 167.664062 107.964844 165.292969 110.234375 162.945312 113.15625 C 161.769531 114.644531 160.707031 116.238281 159.804688 117.878906 C 158.925781 119.492188 158.300781 121.320312 158 123.15625 C 157.726562 124.949219 157.839844 126.761719 158.34375 128.527344 C 158.867188 130.328125 159.789062 132.148438 161.085938 133.929688 L 161.117188 133.976562 C 161.75 134.910156 162.515625 135.828125 163.183594 136.605469 C 163.601562 137.078125 164.023438 137.546875 164.441406 138.015625 C 164.886719 138.511719 165.332031 139.011719 165.773438 139.507812 C 167.289062 141.230469 169.230469 143.53125 170.878906 146.144531 C 172.125 148.164062 173.640625 150.863281 174.375 153.964844 C 175.148438 157.214844 175.074219 160.164062 174.15625 162.503906 C 173.488281 164.628906 172.222656 166.519531 170.292969 168.269531 C 169.65625 168.957031 168.957031 169.394531 168.386719 169.746094 C 168.277344 169.816406 168.167969 169.882812 168.0625 169.953125 L 168.007812 169.984375 C 167.804688 170.105469 167.609375 170.226562 167.421875 170.34375 C 166.988281 170.613281 166.582031 170.867188 166.140625 171.082031 L 166.058594 171.121094 C 165.484375 171.359375 164.925781 171.585938 164.390625 171.796875 C 164.144531 171.894531 163.890625 171.9375 163.636719 171.9375 " fill-opacity="1" fill-rule="nonzero"/></g><path fill="#000000" d="M 136.847656 112.070312 C 137.1875 111.730469 136.839844 111.160156 136.386719 111.3125 C 136.070312 111.414062 135.714844 111.539062 135.324219 111.683594 C 134.460938 112.007812 133.425781 112.453125 132.273438 113.058594 C 131.128906 113.671875 129.847656 114.429688 128.554688 115.4375 C 127.910156 115.945312 127.265625 116.53125 126.578125 117.117188 C 125.914062 117.738281 125.332031 118.496094 124.671875 119.234375 C 124.097656 120.046875 123.511719 120.914062 122.953125 121.839844 C 122.511719 122.839844 121.96875 123.847656 121.699219 125 C 121.464844 126.160156 121.085938 127.339844 121.179688 128.585938 L 121.210938 130.46875 C 121.234375 131.097656 121.449219 131.683594 121.566406 132.292969 L 122.027344 134.121094 C 122.238281 134.695312 122.519531 135.230469 122.78125 135.785156 C 123.304688 136.894531 123.847656 137.996094 124.582031 138.886719 C 125.292969 139.796875 125.976562 140.804688 126.730469 141.609375 C 127.382812 142.339844 128.226562 143.144531 128.863281 143.804688 C 130.199219 145.195312 131.496094 146.496094 132.5625 147.8125 C 133.59375 149.132812 134.609375 150.410156 135.160156 151.667969 C 135.660156 152.914062 136.105469 154.109375 135.960938 155.230469 C 135.925781 156.371094 135.503906 157.476562 134.960938 158.441406 C 134.4375 159.414062 133.722656 160.195312 133.203125 160.902344 C 132.855469 161.242188 132.546875 161.554688 132.28125 161.824219 C 131.988281 162.125 132.296875 162.617188 132.695312 162.488281 C 133.066406 162.363281 133.507812 162.210938 134.007812 162.03125 C 134.816406 161.582031 135.9375 161.132812 136.980469 160.195312 C 138.042969 159.308594 139.246094 158.023438 139.855469 156.171875 C 140.632812 154.351562 140.578125 152.132812 140.113281 150.066406 C 139.652344 147.964844 138.714844 146.0625 137.617188 144.242188 C 136.507812 142.433594 135.191406 140.777344 133.835938 139.214844 C 133.1875 138.472656 132.527344 137.726562 131.875 136.980469 C 131.253906 136.296875 130.84375 135.578125 130.300781 134.890625 C 129.703125 134.226562 129.367188 133.496094 129.007812 132.78125 C 128.832031 132.421875 128.605469 132.074219 128.441406 131.71875 L 128.117188 130.640625 C 127.8125 129.925781 127.765625 129.207031 127.6875 128.496094 C 127.5 127.777344 127.734375 127.0625 127.71875 126.335938 C 127.746094 125.601562 128.085938 124.910156 128.183594 124.167969 C 128.441406 123.457031 128.730469 122.753906 129.027344 122.058594 C 129.757812 120.722656 130.53125 119.421875 131.371094 118.261719 C 132.25 117.132812 133.097656 116.074219 133.894531 115.164062 C 134.738281 114.269531 135.472656 113.484375 136.074219 112.84375 C 136.359375 112.558594 136.617188 112.300781 136.847656 112.070312 " fill-opacity="1" fill-rule="nonzero"/><path fill="#000000" d="M 137.625 155.363281 C 137.59375 156.113281 137.4375 156.882812 137.152344 157.667969 C 137.664062 157.035156 138.03125 156.367188 138.269531 155.648438 L 138.320312 155.511719 C 138.871094 154.226562 138.929688 152.421875 138.484375 150.429688 C 138.121094 148.78125 137.414062 147.140625 136.1875 145.105469 C 135.289062 143.636719 134.140625 142.113281 132.578125 140.308594 L 131.785156 139.410156 C 131.394531 138.96875 131.007812 138.523438 130.617188 138.082031 C 130.195312 137.613281 129.847656 137.121094 129.546875 136.6875 C 129.367188 136.433594 129.199219 136.191406 129.023438 135.96875 C 128.351562 135.210938 127.960938 134.425781 127.617188 133.734375 L 127.515625 133.53125 C 127.441406 133.382812 127.367188 133.246094 127.289062 133.113281 C 127.175781 132.90625 127.046875 132.675781 126.929688 132.425781 L 126.878906 132.316406 L 126.542969 131.207031 C 126.207031 130.371094 126.125 129.589844 126.050781 128.898438 L 126.039062 128.777344 C 125.886719 128.085938 125.953125 127.464844 126.007812 126.960938 C 126.03125 126.738281 126.054688 126.53125 126.050781 126.363281 L 126.050781 126.273438 C 126.074219 125.660156 126.222656 125.128906 126.355469 124.664062 C 126.429688 124.398438 126.503906 124.152344 126.53125 123.945312 L 126.554688 123.769531 L 126.613281 123.605469 C 126.886719 122.835938 127.195312 122.09375 127.488281 121.40625 L 127.5625 121.253906 C 128.449219 119.628906 129.230469 118.367188 130.023438 117.277344 L 130.050781 117.238281 C 130.574219 116.566406 131.042969 115.976562 131.472656 115.445312 C 130.882812 115.8125 130.230469 116.25 129.578125 116.757812 C 129.179688 117.070312 128.769531 117.429688 128.332031 117.808594 C 128.121094 117.992188 127.910156 118.175781 127.691406 118.359375 C 127.324219 118.710938 126.960938 119.136719 126.574219 119.589844 C 126.378906 119.816406 126.183594 120.050781 125.980469 120.277344 C 125.371094 121.144531 124.875 121.890625 124.4375 122.613281 C 124.347656 122.816406 124.25 123.019531 124.15625 123.222656 C 123.820312 123.953125 123.5 124.640625 123.328125 125.359375 C 123.277344 125.617188 123.21875 125.878906 123.15625 126.144531 C 122.96875 126.964844 122.789062 127.742188 122.84375 128.460938 L 122.847656 128.5625 L 122.878906 130.421875 C 122.890625 130.660156 122.960938 130.945312 123.042969 131.273438 C 123.097656 131.480469 123.152344 131.695312 123.199219 131.929688 L 123.625 133.625 C 123.746094 133.949219 123.910156 134.28125 124.082031 134.632812 C 124.152344 134.78125 124.222656 134.925781 124.292969 135.074219 C 124.78125 136.101562 125.265625 137.089844 125.871094 137.820312 L 125.902344 137.859375 C 126.125 138.148438 126.347656 138.445312 126.570312 138.742188 C 127.046875 139.378906 127.492188 139.980469 127.953125 140.472656 L 127.972656 140.496094 C 128.363281 140.933594 128.84375 141.410156 129.308594 141.875 C 129.574219 142.144531 129.832031 142.402344 130.0625 142.640625 L 130.703125 143.304688 C 131.84375 144.484375 132.921875 145.597656 133.863281 146.757812 L 134.003906 146.9375 C 135.019531 148.246094 136.074219 149.59375 136.6875 150.996094 L 136.707031 151.042969 C 137.285156 152.480469 137.789062 153.890625 137.625 155.363281 Z M 132.566406 164.179688 C 131.867188 164.179688 131.199219 163.824219 130.8125 163.203125 C 130.304688 162.390625 130.417969 161.34375 131.085938 160.65625 C 131.332031 160.40625 131.621094 160.117188 131.941406 159.796875 C 132.078125 159.617188 132.226562 159.429688 132.378906 159.234375 C 132.777344 158.730469 133.1875 158.210938 133.496094 157.644531 C 134.003906 156.734375 134.269531 155.914062 134.292969 155.179688 L 134.304688 155.019531 C 134.394531 154.324219 134.03125 153.34375 133.621094 152.316406 C 133.171875 151.308594 132.296875 150.183594 131.371094 148.996094 L 131.257812 148.851562 C 130.410156 147.808594 129.386719 146.75 128.304688 145.628906 L 127.664062 144.964844 C 127.445312 144.738281 127.199219 144.492188 126.949219 144.242188 C 126.457031 143.75 125.949219 143.238281 125.5 142.738281 C 124.921875 142.117188 124.398438 141.421875 123.894531 140.746094 C 123.691406 140.472656 123.488281 140.199219 123.28125 139.933594 C 122.441406 138.90625 121.851562 137.726562 121.273438 136.5 C 121.210938 136.363281 121.144531 136.230469 121.078125 136.097656 C 120.867188 135.660156 120.644531 135.203125 120.460938 134.695312 L 120.410156 134.53125 L 119.929688 132.613281 C 119.894531 132.4375 119.851562 132.261719 119.804688 132.089844 C 119.691406 131.632812 119.5625 131.121094 119.542969 130.527344 L 119.542969 130.496094 L 119.511719 128.660156 C 119.429688 127.457031 119.679688 126.363281 119.902344 125.394531 C 119.957031 125.152344 120.015625 124.910156 120.0625 124.667969 L 120.074219 124.617188 C 120.324219 123.558594 120.75 122.632812 121.128906 121.816406 C 121.230469 121.597656 121.332031 121.382812 121.425781 121.164062 L 121.523438 120.972656 C 122.03125 120.128906 122.601562 119.269531 123.3125 118.265625 L 123.429688 118.121094 C 123.636719 117.886719 123.835938 117.652344 124.035156 117.421875 C 124.472656 116.90625 124.921875 116.378906 125.433594 115.898438 L 125.496094 115.839844 C 125.714844 115.652344 125.929688 115.464844 126.140625 115.285156 C 126.589844 114.890625 127.058594 114.488281 127.527344 114.121094 C 129.046875 112.9375 130.511719 112.105469 131.480469 111.585938 C 132.539062 111.027344 133.632812 110.535156 134.738281 110.117188 C 135.121094 109.976562 135.5 109.839844 135.867188 109.722656 C 136.808594 109.414062 137.824219 109.789062 138.339844 110.636719 C 138.855469 111.480469 138.726562 112.554688 138.023438 113.253906 C 137.800781 113.476562 137.550781 113.730469 137.277344 114.007812 C 136.679688 114.640625 135.960938 115.410156 135.128906 116.289062 C 134.441406 117.074219 133.671875 118.023438 132.707031 119.265625 C 132.019531 120.214844 131.328125 121.335938 130.53125 122.789062 C 130.285156 123.363281 130.035156 123.972656 129.808594 124.585938 C 129.746094 124.953125 129.652344 125.285156 129.566406 125.582031 C 129.484375 125.875 129.402344 126.15625 129.390625 126.363281 C 129.390625 126.714844 129.359375 127.035156 129.328125 127.316406 C 129.292969 127.628906 129.261719 127.917969 129.304688 128.074219 L 129.335938 128.191406 L 129.375 128.546875 C 129.429688 129.101562 129.480469 129.582031 129.65625 129.988281 L 129.714844 130.160156 L 130.003906 131.109375 C 130.058594 131.222656 130.125 131.34375 130.199219 131.472656 C 130.304688 131.660156 130.410156 131.851562 130.507812 132.042969 L 130.605469 132.242188 C 130.898438 132.832031 131.152344 133.339844 131.542969 133.773438 L 131.609375 133.855469 C 131.855469 134.167969 132.070312 134.46875 132.277344 134.765625 C 132.550781 135.152344 132.808594 135.523438 133.109375 135.859375 C 133.515625 136.316406 133.902344 136.757812 134.289062 137.199219 L 135.089844 138.109375 C 136.785156 140.0625 138.035156 141.730469 139.039062 143.367188 C 140.46875 145.738281 141.300781 147.6875 141.742188 149.707031 C 142.160156 151.570312 142.441406 154.308594 141.417969 156.761719 C 140.816406 158.542969 139.71875 160.082031 138.070312 161.460938 C 137.109375 162.316406 136.140625 162.808594 135.363281 163.207031 C 135.167969 163.304688 134.984375 163.398438 134.816406 163.492188 L 134.699219 163.554688 L 134.578125 163.601562 C 134.113281 163.769531 133.65625 163.929688 133.21875 164.074219 C 133.003906 164.148438 132.785156 164.179688 132.566406 164.179688 " fill-opacity="1" fill-rule="nonzero"/><path fill="#000000" d="M 198.207031 112.070312 C 198.546875 111.730469 198.199219 111.164062 197.746094 111.3125 C 197.425781 111.414062 197.074219 111.539062 196.6875 111.683594 C 195.816406 112.011719 194.78125 112.453125 193.628906 113.058594 C 192.484375 113.671875 191.207031 114.429688 189.914062 115.441406 C 189.265625 115.945312 188.625 116.53125 187.933594 117.117188 C 187.269531 117.738281 186.6875 118.5 186.03125 119.234375 C 185.457031 120.050781 184.867188 120.914062 184.308594 121.835938 C 183.867188 122.84375 183.324219 123.851562 183.054688 124.996094 C 182.824219 126.15625 182.441406 127.339844 182.539062 128.585938 L 182.570312 130.464844 C 182.585938 131.097656 182.804688 131.679688 182.929688 132.292969 L 183.386719 134.121094 C 183.597656 134.703125 183.882812 135.234375 184.140625 135.789062 C 184.664062 136.894531 185.210938 137.996094 185.941406 138.886719 C 186.652344 139.800781 187.339844 140.804688 188.089844 141.609375 C 188.742188 142.339844 189.585938 143.140625 190.222656 143.804688 C 191.558594 145.191406 192.859375 146.492188 193.925781 147.8125 C 194.953125 149.132812 195.96875 150.410156 196.515625 151.664062 C 197.019531 152.914062 197.464844 154.109375 197.320312 155.234375 C 197.28125 156.375 196.859375 157.476562 196.320312 158.445312 C 195.792969 159.414062 195.078125 160.195312 194.5625 160.902344 C 194.210938 161.246094 193.902344 161.554688 193.636719 161.824219 C 193.34375 162.125 193.652344 162.621094 194.050781 162.488281 C 194.421875 162.367188 194.863281 162.214844 195.367188 162.03125 C 196.175781 161.582031 197.296875 161.132812 198.339844 160.195312 C 199.398438 159.308594 200.601562 158.023438 201.210938 156.171875 C 201.992188 154.355469 201.933594 152.132812 201.472656 150.066406 C 201.011719 147.964844 200.074219 146.0625 198.980469 144.238281 C 197.871094 142.429688 196.550781 140.777344 195.199219 139.210938 C 194.546875 138.472656 193.886719 137.726562 193.230469 136.980469 C 192.613281 136.296875 192.203125 135.578125 191.660156 134.890625 C 191.0625 134.226562 190.726562 133.496094 190.367188 132.78125 C 190.191406 132.421875 189.964844 132.074219 189.804688 131.71875 L 189.476562 130.644531 C 189.171875 129.929688 189.121094 129.210938 189.046875 128.496094 C 188.859375 127.773438 189.09375 127.0625 189.078125 126.335938 C 189.105469 125.601562 189.441406 124.910156 189.539062 124.167969 C 189.800781 123.457031 190.089844 122.75 190.382812 122.058594 C 191.117188 120.722656 191.886719 119.421875 192.730469 118.261719 C 193.609375 117.132812 194.457031 116.082031 195.253906 115.164062 C 196.09375 114.269531 196.832031 113.488281 197.433594 112.84375 C 197.71875 112.558594 197.976562 112.300781 198.207031 112.070312 " fill-opacity="1" fill-rule="nonzero"/><path fill="#000000" d="M 197.03125 110.886719 C 197.027344 110.886719 197.027344 110.886719 197.027344 110.886719 Z M 198.988281 155.363281 C 198.953125 156.109375 198.792969 156.878906 198.511719 157.664062 C 199.023438 157.03125 199.390625 156.363281 199.628906 155.648438 L 199.679688 155.515625 C 200.230469 154.222656 200.289062 152.417969 199.84375 150.429688 C 199.484375 148.789062 198.777344 147.148438 197.546875 145.097656 C 196.652344 143.644531 195.503906 142.117188 193.9375 140.308594 C 193.59375 139.917969 193.238281 139.515625 192.882812 139.113281 C 192.582031 138.769531 192.28125 138.425781 191.976562 138.082031 C 191.554688 137.617188 191.210938 137.125 190.90625 136.691406 C 190.726562 136.433594 190.558594 136.191406 190.378906 135.964844 C 189.714844 135.214844 189.328125 134.4375 188.984375 133.75 L 188.875 133.535156 C 188.800781 133.386719 188.726562 133.25 188.652344 133.117188 C 188.535156 132.910156 188.402344 132.675781 188.285156 132.417969 L 188.238281 132.316406 L 187.902344 131.207031 C 187.5625 130.363281 187.480469 129.574219 187.40625 128.875 L 187.398438 128.773438 C 187.246094 128.082031 187.3125 127.464844 187.367188 126.960938 C 187.390625 126.738281 187.414062 126.53125 187.410156 126.363281 L 187.410156 126.273438 C 187.429688 125.664062 187.578125 125.140625 187.710938 124.671875 C 187.785156 124.40625 187.855469 124.15625 187.882812 123.953125 L 187.90625 123.765625 L 187.96875 123.589844 C 188.253906 122.816406 188.574219 122.050781 188.847656 121.40625 L 188.921875 121.253906 C 189.820312 119.613281 190.601562 118.347656 191.382812 117.277344 L 191.414062 117.234375 C 191.941406 116.558594 192.410156 115.96875 192.84375 115.4375 C 192.246094 115.804688 191.59375 116.246094 190.9375 116.757812 C 190.535156 117.074219 190.125 117.433594 189.6875 117.8125 C 189.476562 117.992188 189.265625 118.175781 189.046875 118.359375 C 188.683594 118.710938 188.316406 119.136719 187.933594 119.589844 C 187.738281 119.816406 187.542969 120.046875 187.339844 120.277344 C 186.898438 120.910156 186.332031 121.726562 185.792969 122.613281 C 185.699219 122.824219 185.601562 123.035156 185.503906 123.25 C 185.167969 123.96875 184.855469 124.652344 184.6875 125.355469 C 184.632812 125.621094 184.570312 125.886719 184.511719 126.15625 C 184.324219 126.972656 184.148438 127.742188 184.203125 128.457031 L 184.210938 128.5625 L 184.238281 130.4375 C 184.246094 130.65625 184.320312 130.949219 184.40625 131.289062 C 184.460938 131.496094 184.511719 131.707031 184.558594 131.921875 L 184.984375 133.625 C 185.109375 133.953125 185.269531 134.285156 185.441406 134.636719 C 185.511719 134.78125 185.582031 134.925781 185.652344 135.074219 C 186.136719 136.101562 186.625 137.085938 187.230469 137.824219 L 187.253906 137.855469 C 187.484375 138.148438 187.707031 138.449219 187.929688 138.746094 C 188.402344 139.378906 188.851562 139.980469 189.308594 140.46875 L 189.332031 140.496094 C 189.714844 140.921875 190.183594 141.390625 190.632812 141.84375 C 190.914062 142.125 191.183594 142.394531 191.425781 142.648438 L 192.066406 143.308594 C 193.203125 144.484375 194.28125 145.597656 195.222656 146.761719 L 195.363281 146.941406 C 196.382812 148.246094 197.433594 149.597656 198.042969 150.996094 L 198.0625 151.035156 C 198.644531 152.46875 199.152344 153.875 198.988281 155.363281 Z M 193.921875 164.179688 C 193.222656 164.179688 192.554688 163.824219 192.167969 163.203125 C 191.660156 162.390625 191.773438 161.34375 192.445312 160.65625 C 192.691406 160.402344 192.980469 160.113281 193.300781 159.796875 C 193.4375 159.617188 193.585938 159.429688 193.738281 159.234375 C 194.136719 158.730469 194.546875 158.210938 194.855469 157.644531 C 195.363281 156.734375 195.628906 155.90625 195.652344 155.179688 L 195.664062 155.027344 C 195.753906 154.3125 195.394531 153.339844 194.976562 152.316406 C 194.535156 151.308594 193.660156 150.1875 192.734375 149 L 192.621094 148.855469 C 191.773438 147.808594 190.75 146.753906 189.667969 145.636719 L 189.019531 144.96875 C 188.789062 144.726562 188.535156 144.46875 188.269531 144.207031 C 187.792969 143.726562 187.296875 143.226562 186.859375 142.742188 C 186.28125 142.121094 185.761719 141.421875 185.257812 140.75 C 185.050781 140.472656 184.84375 140.199219 184.636719 139.929688 C 183.796875 138.902344 183.207031 137.722656 182.632812 136.5 C 182.566406 136.367188 182.503906 136.234375 182.441406 136.101562 C 182.226562 135.664062 182.003906 135.207031 181.816406 134.691406 L 181.765625 134.527344 L 181.292969 132.628906 C 181.257812 132.453125 181.214844 132.289062 181.171875 132.117188 C 181.050781 131.65625 180.917969 131.128906 180.902344 130.515625 L 180.871094 128.660156 C 180.789062 127.460938 181.035156 126.371094 181.257812 125.410156 C 181.3125 125.160156 181.371094 124.914062 181.417969 124.667969 L 181.429688 124.617188 C 181.675781 123.574219 182.097656 122.652344 182.472656 121.84375 C 182.578125 121.617188 182.683594 121.390625 182.78125 121.164062 L 182.824219 121.066406 L 182.882812 120.972656 C 183.515625 119.925781 184.167969 118.976562 184.667969 118.269531 L 184.789062 118.121094 C 184.996094 117.886719 185.195312 117.652344 185.394531 117.421875 C 185.828125 116.90625 186.28125 116.375 186.796875 115.894531 L 186.855469 115.839844 C 187.074219 115.65625 187.285156 115.46875 187.496094 115.289062 C 187.949219 114.894531 188.414062 114.488281 188.886719 114.121094 C 190.394531 112.941406 191.863281 112.109375 192.839844 111.582031 C 193.914062 111.019531 195.003906 110.53125 196.097656 110.117188 C 196.480469 109.976562 196.863281 109.839844 197.230469 109.722656 C 198.167969 109.417969 199.183594 109.792969 199.695312 110.636719 C 200.210938 111.480469 200.085938 112.558594 199.382812 113.253906 C 199.160156 113.476562 198.910156 113.730469 198.636719 114.007812 L 197.742188 114.957031 C 197.355469 115.363281 196.9375 115.808594 196.492188 116.285156 C 195.808594 117.070312 195.035156 118.019531 194.066406 119.269531 C 193.386719 120.203125 192.695312 121.324219 191.890625 122.789062 C 191.65625 123.335938 191.398438 123.964844 191.164062 124.589844 C 191.101562 124.953125 191.007812 125.285156 190.925781 125.582031 C 190.839844 125.875 190.761719 126.15625 190.75 126.359375 C 190.753906 126.714844 190.714844 127.035156 190.6875 127.320312 C 190.652344 127.628906 190.621094 127.917969 190.664062 128.074219 L 190.691406 128.195312 L 190.726562 128.53125 C 190.785156 129.089844 190.835938 129.574219 191.011719 129.988281 L 191.074219 130.160156 L 191.363281 131.113281 C 191.417969 131.222656 191.488281 131.347656 191.5625 131.480469 C 191.667969 131.664062 191.773438 131.855469 191.863281 132.042969 L 191.972656 132.257812 C 192.261719 132.839844 192.515625 133.34375 192.894531 133.769531 L 192.96875 133.851562 C 193.214844 134.167969 193.429688 134.472656 193.636719 134.769531 C 193.910156 135.160156 194.167969 135.527344 194.46875 135.859375 C 194.785156 136.21875 195.085938 136.558594 195.386719 136.898438 C 195.742188 137.304688 196.097656 137.707031 196.453125 138.109375 C 198.148438 140.066406 199.398438 141.734375 200.398438 143.363281 C 201.835938 145.75 202.664062 147.703125 203.105469 149.707031 C 203.519531 151.570312 203.800781 154.308594 202.773438 156.765625 C 202.175781 158.539062 201.078125 160.078125 199.429688 161.460938 C 198.472656 162.316406 197.503906 162.808594 196.726562 163.203125 C 196.53125 163.304688 196.34375 163.398438 196.171875 163.492188 L 196.058594 163.558594 L 195.9375 163.601562 C 195.46875 163.773438 195.011719 163.929688 194.574219 164.074219 C 194.359375 164.148438 194.140625 164.179688 193.921875 164.179688 " fill-opacity="1" fill-rule="nonzero"/></svg>